<?xml version="1.0" encoding="UTF-8" standalone="no"?>
<!-- Created with Inkscape (http://www.inkscape.org/) -->

<svg
   xmlns:dc="http://purl.org/dc/elements/1.1/"
   xmlns:cc="http://creativecommons.org/ns#"
   xmlns:rdf="http://www.w3.org/1999/02/22-rdf-syntax-ns#"
   xmlns:svg="http://www.w3.org/2000/svg"
   xmlns="http://www.w3.org/2000/svg"
   xmlns:sodipodi="http://sodipodi.sourceforge.net/DTD/sodipodi-0.dtd"
   xmlns:inkscape="http://www.inkscape.org/namespaces/inkscape"
   width="326.71741"
   height="80.000008"
   viewBox="0 0 326.71739 80.000007"
   id="svg3410"
   version="1.1"
   inkscape:version="0.91 r13725"
   sodipodi:docname="logo_white.svg">
  <defs
     id="defs3412" />
  <sodipodi:namedview
     id="base"
     pagecolor="#838383"
     bordercolor="#666666"
     borderopacity="1.0"
     inkscape:pageopacity="0"
     inkscape:pageshadow="2"
     inkscape:zoom="1.4"
     inkscape:cx="271.12214"
     inkscape:cy="20.017421"
     inkscape:document-units="px"
     inkscape:current-layer="layer1"
     showgrid="false"
     fit-margin-top="0"
     fit-margin-left="0"
     fit-margin-right="0"
     fit-margin-bottom="0"
     units="px"
     inkscape:window-width="1366"
     inkscape:window-height="718"
     inkscape:window-x="0"
     inkscape:window-y="0"
     inkscape:window-maximized="1" />
  <metadata
     id="metadata3415">
    <rdf:RDF>
      <cc:Work
         rdf:about="">
        <dc:format>image/svg+xml</dc:format>
        <dc:type
           rdf:resource="http://purl.org/dc/dcmitype/StillImage" />
        <dc:title></dc:title>
      </cc:Work>
    </rdf:RDF>
  </metadata>
  <g
     inkscape:label="Capa 1"
     inkscape:groupmode="layer"
     id="layer1"
     transform="translate(-185.21272,-349.50506)">
    <path
       style="fill:#ffffff;fill-opacity:1"
       d="m 282.24178,403.17595 c -1.58547,-1.58546 -5.67399,-9.51707 -5.16708,-10.02399 0.16253,-0.16252 1.59238,-0.64256 3.17746,-1.06675 4.77087,-1.27677 6.61159,-2.81693 6.94948,-5.81483 0.21286,-1.88849 -0.8424,-3.86727 -4.05545,-7.60457 -3.83475,-4.46046 -5.00534,-7.39033 -4.6493,-11.6369 0.52656,-6.28102 6.36198,-11.30889 15.34257,-13.21938 1.72093,-0.3661 2.19415,-0.37775 2.49124,-0.0614 0.52989,0.5644 4.74976,9.80487 4.56294,9.99169 -0.0863,0.0863 -1.15345,0.16751 -2.37139,0.18039 -5.07017,0.0537 -7.61797,3.1757 -5.74417,7.03894 0.33208,0.68468 1.91104,2.89813 3.50879,4.91876 1.59773,2.02063 3.24698,4.37232 3.66498,5.226 2.84823,5.81685 0.96158,12.77009 -4.73493,17.45056 -2.78641,2.28941 -6.23631,3.90754 -10.348,4.85357 -1.89835,0.43677 -1.96397,0.43099 -2.62714,-0.23221 z m 43.07382,-0.23346 c -4.49561,-0.74891 -8.33284,-2.73805 -11.91364,-6.17575 -3.69829,-3.5505 -5.85654,-7.25113 -7.04986,-12.08808 -0.77717,-3.1502 -0.70205,-9.60047 0.14995,-12.87132 2.1862,-8.39312 8.97536,-15.35511 16.97176,-17.40373 3.31836,-0.85015 9.36952,-0.78054 12.62149,0.14521 3.92432,1.11714 6.96012,2.88052 9.81081,5.69879 3.02197,2.98757 4.57328,5.2984 5.86984,8.74378 1.39561,3.70855 1.74146,6.12219 1.55207,10.83188 -0.19015,4.72881 -0.66632,6.71909 -2.49915,10.44614 -1.86125,3.78481 -5.01841,7.32055 -8.53627,9.55988 -4.36517,2.77868 -11.32445,4.05485 -16.977,3.1132 z m 9.11102,-13.46222 c 6.36157,-3.39068 8.3736,-11.99039 4.28528,-18.31584 -1.21897,-1.88599 -2.32865,-2.86618 -4.58952,-4.05398 -1.1819,-0.62098 -1.81328,-0.72392 -4.43976,-0.72392 -3.48401,0 -4.66364,0.44267 -7.05593,2.6478 -3.0264,2.78962 -4.2503,5.89632 -4.06503,10.31831 0.14914,3.55983 0.97443,5.63971 3.16848,7.98532 2.3458,2.50786 4.74692,3.43159 8.46464,3.2564 1.93936,-0.0914 2.6778,-0.2858 4.23184,-1.11409 z m 39.04803,12.85002 c -7.06929,-0.13267 -13.14754,-0.31505 -13.50723,-0.40533 l -0.654,-0.16413 -0.15195,-23.19859 c -0.0836,-12.75921 -0.10147,-23.25688 -0.0398,-23.32814 0.26161,-0.30199 13.56922,-0.18704 13.66946,0.11808 0.0574,0.17473 -7.1e-4,2.04 -0.12938,4.14506 -0.45323,7.42083 -0.91058,26.21396 -0.70605,29.01158 l 0.20709,2.83224 3.86752,-0.0274 c 2.12714,-0.0152 6.48546,-0.12582 9.68514,-0.24598 3.1997,-0.12014 5.98985,-0.16191 6.20036,-0.0928 0.84119,0.27613 0.16782,10.33559 -0.75354,11.25694 -0.30975,0.30976 -1.08348,0.42394 -2.63642,0.38909 -1.20891,-0.0272 -7.98198,-0.15787 -15.05128,-0.29051 z m 111.54998,-0.18208 c -0.59592,-0.6882 -3.99864,-8.21865 -9.20688,-20.37559 -0.34269,-0.79993 -0.75948,-1.45441 -0.92619,-1.45441 -0.19811,0 -0.23181,3.63256 -0.0973,10.48702 0.1147,5.84484 0.0877,10.65936 -0.0609,10.8763 -0.2043,0.29818 -1.72999,0.36982 -6.52151,0.30618 l -6.25483,-0.0831 0.0258,-2.60261 c 0.0142,-1.43144 0.12837,-8.52742 0.25368,-15.76883 0.12532,-7.24142 0.10395,-16.54195 -0.0475,-20.66788 -0.17111,-4.66233 -0.16648,-7.57493 0.0122,-7.69524 0.15813,-0.10646 2.92359,-0.25848 6.14543,-0.3378 5.08949,-0.12532 5.92413,-0.0798 6.36274,0.34667 0.27767,0.26999 2.82399,5.58374 5.65855,11.80835 2.83451,6.22461 5.44383,11.65478 5.79845,12.06705 0.37672,0.43796 0.79609,0.65607 1.00875,0.52466 0.47727,-0.29498 1.64312,-2.62488 7.27113,-14.53107 2.57692,-5.45156 4.74272,-9.96932 4.81287,-10.03948 0.0701,-0.0702 2.89267,-0.1743 6.27228,-0.23144 5.24098,-0.0886 6.17063,-0.0364 6.32074,0.35474 0.0968,0.25224 0.0147,5.3679 -0.18251,11.36813 -0.28096,8.55041 -0.27491,13.47648 0.0281,22.78041 0.30831,9.47052 0.30939,11.96376 0.006,12.33013 -0.32089,0.38664 -1.40292,0.4462 -6.84525,0.37672 l -6.46407,-0.0825 0.11087,-11.17597 c 0.0982,-9.89657 0.0587,-11.12339 -0.34485,-10.71668 -0.25064,0.25261 -1.53428,3.07721 -2.85253,6.27692 -1.31825,3.19969 -3.36824,8.15997 -4.55552,11.02285 l -2.15872,5.20525 -1.54612,0.0905 c -1.18456,0.0693 -1.65746,-0.0381 -2.02219,-0.45929 z m -83.38719,-0.0721 -4.59286,-0.17149 -0.21483,-20.2086 c -0.11816,-11.11472 -0.33674,-21.44865 -0.48573,-22.9643 -0.21612,-2.19832 -0.18593,-2.84862 0.14921,-3.215 0.36027,-0.39384 2.15269,-0.45776 12.58028,-0.44859 10.4942,0.009 12.44903,0.0833 14.2688,0.54114 6.28637,1.58136 11.04897,6.17895 12.59129,12.15508 0.72868,2.82354 0.66536,8.01615 -0.1356,11.11898 -1.28325,4.97104 -4.23928,8.81303 -8.26518,10.7424 -3.11954,1.495 -5.61535,1.84047 -11.55371,1.5993 -6.2006,-0.25181 -6.05233,-0.34128 -5.70492,3.44255 0.13352,1.45429 0.24278,3.74646 0.24278,5.0937 l 0,2.44952 -2.14333,0.0184 c -1.17884,0.01 -4.21013,-0.0588 -6.7362,-0.15309 z m 17.85811,-21.93271 c 2.22568,-0.92995 3.34292,-2.71064 3.63008,-5.78571 0.33603,-3.59848 -0.94656,-6.61693 -3.34674,-7.87621 -1.07247,-0.56269 -1.9194,-0.70277 -4.82215,-0.79757 -2.04422,-0.0667 -3.87439,0.0212 -4.36322,0.20966 l -0.84202,0.32465 0,7.04414 0,7.04412 0.68893,0.15387 c 2.4666,0.55088 7.3906,0.37853 9.05512,-0.31695 z m 23.17144,21.94739 -1.22475,-0.18619 0.0655,-3.82738 c 0.036,-2.10507 0.10777,-12.64569 0.1594,-23.4236 l 0.0939,-19.5962 6.88298,0 6.88299,0 -0.0671,3.52119 c -0.037,1.93665 -0.11364,12.47727 -0.1705,23.42359 l -0.10336,19.9024 -1.81976,0.19642 c -2.27264,0.24528 -9.06118,0.23881 -10.69927,-0.0102 z"
       id="path4335"
       inkscape:connector-curvature="0" />
    <circle
       style="opacity:1;fill:#ffad1c;fill-opacity:1;stroke:none;stroke-width:0.625;stroke-linecap:butt;stroke-linejoin:miter;stroke-miterlimit:4;stroke-dasharray:none;stroke-dashoffset:0"
       id="path4322"
       cx="225.21272"
       cy="389.50507"
       r="40.000004" />
    <path
       style="fill:#0a59b2;fill-opacity:1"
       d="m 214.75541,426.69739 c -2.40093,-2.40091 -8.5923,-14.41203 -7.82468,-15.17964 0.24611,-0.24612 2.41138,-0.97306 4.81174,-1.61542 7.22468,-1.93346 10.01212,-4.2658 10.52381,-8.8056 0.32234,-2.8598 -1.27568,-5.85633 -6.14129,-11.51585 -5.80708,-6.75461 -7.57976,-11.19141 -7.0406,-17.62214 0.7974,-9.51153 9.63416,-17.12541 23.23375,-20.01852 2.60606,-0.5544 3.32267,-0.57204 3.77258,-0.0929 0.80241,0.8547 7.19271,14.84784 6.90981,15.13076 -0.13075,0.13072 -1.74672,0.25365 -3.59108,0.27317 -7.67793,0.0812 -11.53614,4.80905 -8.6986,10.65927 0.50289,1.03684 2.89395,4.38875 5.31347,7.44865 2.41952,3.05991 4.91703,6.62115 5.55002,7.91391 4.31315,8.80865 1.45614,19.33816 -7.17026,26.42595 -4.21956,3.46692 -9.44386,5.91729 -15.67029,7.34991 -2.87478,0.66143 -2.97412,0.65264 -3.97838,-0.35164 z"
       id="path4358"
       inkscape:connector-curvature="0" />
    <text
       xml:space="preserve"
       style="font-style:normal;font-weight:normal;font-size:18.8441658px;line-height:125%;font-family:sans-serif;text-align:center;letter-spacing:0px;word-spacing:0px;text-anchor:middle;fill:#e6e6e6;fill-opacity:1;stroke:none;stroke-width:1px;stroke-linecap:butt;stroke-linejoin:miter;stroke-opacity:1"
       x="394.83374"
       y="421.87125"
       id="text4360"
       sodipodi:linespacing="125%"><tspan
         sodipodi:role="line"
         x="394.83374"
         y="421.87125"
         id="tspan4364"
         style="font-style:normal;font-variant:normal;font-weight:500;font-stretch:normal;font-family:Raleway;-inkscape-font-specification:'Raleway Medium';fill:#e6e6e6;fill-opacity:1">Soluciones para Imprentas</tspan></text>
  </g>
</svg>
